<?xml version="1.0" encoding="utf-8"?>
<!-- Generator: Adobe Illustrator 24.3.0, SVG Export Plug-In . SVG Version: 6.00 Build 0)  -->
<svg version="1.1" xmlns="http://www.w3.org/2000/svg" xmlns:xlink="http://www.w3.org/1999/xlink" x="0px" y="0px"
	 viewBox="0 0 1893 491" style="enable-background:new 0 0 1893 491;" xml:space="preserve">
<style type="text/css">
	.st0{display:none;}
	.st1{display:inline;fill:#002136;}
	.st2{fill:#FF3366;}
	.st3{fill:#00ADDB;}
	.st4{fill:#FFD065;}
	.st5{fill:#FFFFFF;}
	.st6{fill:#002136;}
</style>
<g id="BG" class="st0">
</g>
<g id="Layer_1">
	<g>
		<g>
			<g>
				<path class="st2" d="M245.23,0.15c135.5-0.1,245.43,109.66,245.53,245.16c0.1,135.5-109.66,245.43-245.16,245.53
					C110.11,490.95,0.18,381.19,0.08,245.68v-0.19C0.02,110.05,109.79,0.21,245.23,0.15"/>
				<path class="st3" d="M245.16,115.83c71.6-0.05,129.69,57.96,129.73,129.57c0.04,71.6-57.97,129.68-129.57,129.73
					c-71.6,0.05-129.68-57.96-129.73-129.56v-0.08C115.58,173.9,173.59,115.86,245.16,115.83"/>
				<path class="st4" d="M429.64,245.5c0.06-38.35-11.87-75.76-34.13-106.98l24.22-24.25c-12.38-16.49-27.03-31.15-43.51-43.55
					l-24.25,24.27c-63.88-45.35-149.42-45.39-213.33-0.1l-24.27-24.28c-16.49,12.39-31.15,27.05-43.56,43.53l24.24,24.25
					C49.5,202.39,49.41,288.2,94.84,352.31L70.7,376.47c12.39,16.49,27.05,31.15,43.53,43.55l24.11-24.13
					c64.04,45.57,149.93,45.53,213.93-0.1l24.1,24.12c16.47-12.42,31.11-27.1,43.49-43.61l-24.13-24.14
					c22.12-31.16,33.97-68.45,33.91-106.67 M115.68,245.49c0.07-71.55,58.13-129.5,129.69-129.43
					c71.56,0.07,129.5,58.13,129.43,129.69c-0.07,71.51-58.06,129.44-129.57,129.43c-71.59-0.03-129.59-58.09-129.56-129.67"/>
				<path class="st4" d="M245.16,183.97c33.99-0.03,61.58,27.5,61.61,61.49c0.03,33.99-27.5,61.58-61.49,61.61
					c-33.99,0.03-61.58-27.5-61.61-61.49v-0.06C183.66,211.54,211.18,183.98,245.16,183.97L245.16,183.97"/>
			</g>
		</g>
		<g>
			<g>
				<path class="st6" d="M714.9,138.61c-16.35-14.35-39.08-22.25-64-22.25h-98.43v257.91h56.62v-86.12h41.81
					c25.05,0,47.82-7.9,64.13-22.25c17.64-15.52,26.96-37.53,26.96-63.65C741.99,176.18,732.63,154.17,714.9,138.61 M609.1,165.72
					h36.62c24.61,0,39.3,13.66,39.3,36.54c0,23.22-14.33,36.54-39.3,36.54H609.1V165.72z"/>
				<path class="st6" d="M807.68,219.82L805,195.22h-48.78v179.06h54.55V272.57c11.91-14.98,25.3-21.96,42.07-21.96h6v-54.2h-1.85
					C836.71,196.4,818.64,205.07,807.68,219.82"/>
				<rect x="881.06" y="195.22" class="st6" width="54.55" height="179.06"/>
				<path class="st6" d="M908.33,112.17c-18.31,0-31.6,13.29-31.6,31.6s13.29,31.6,31.6,31.6c18.31,0,31.6-13.29,31.6-31.6
					S926.64,112.17,908.33,112.17"/>
				<path class="st6" d="M1083.67,307.91c-7.71,14.31-20.03,22.2-34.68,22.2c-26.43,0-38.27-22.69-38.27-45.18
					c0-27.66,14.88-45.53,37.92-45.53c15,0,26.43,7.46,33.98,22.17l1,1.95l39.45-29.3l-0.91-1.45
					c-17.14-27.19-41.99-40.98-73.85-40.98c-53.58,0-92.47,39.18-92.47,93.16c0,26.04,9.2,49.65,25.91,66.5
					c16.83,16.97,40.59,26.31,66.9,26.31c31.78,0,56.62-13.67,73.85-40.63l0.92-1.43l-38.7-29.68L1083.67,307.91z"/>
				<path class="st6" d="M1218.71,191.76c-25.59,0-48.68,9.48-65.03,26.69c-16.14,16.99-25.02,40.72-25.02,66.82
					c0,26.22,8.89,49.77,25.04,66.32c16.7,17.11,39.89,26.15,67.08,26.15c32.65,0,56.72-10.2,75.76-32.11l1.26-1.45l-37.93-30.8
					l-1.15,1.57c-8.03,10.95-21.48,17.23-36.89,17.23c-23.31,0-36.46-10.9-38.15-31.57h118.51V282.5
					C1302.18,227.38,1269.42,191.76,1218.71,191.76 M1248.23,264.74h-64.53c1.78-18.56,14.94-30.88,33.28-30.88
					C1235.01,233.86,1246.84,245.64,1248.23,264.74"/>
				<path class="st6" d="M1422.14,216.7c-39.31-7.5-46.22-14.76-46.22-27.23c0-11.78,5.98-25.82,34.46-25.82
					c22.92,0,42.22,6.9,60.75,21.73l1.62,1.3l29.32-46.77l-1.33-1.03c-22.28-17.17-55.09-27.02-90.02-27.02
					c-54.69,0-91.43,32.16-91.43,80.02c0,42.67,25.99,66.49,86.93,79.64c39.82,7.67,47.61,16.3,47.61,28.62
					c0,23.37-25.06,26.85-40,26.85c-25.58,0-53.81-11.72-70.24-29.16l-1.61-1.71l-30.88,47.25l1.23,1.06
					c25.66,22.15,61.1,34.34,99.78,34.34c59.53,0,98-32.77,98-83.48C1510.11,252.62,1484.63,229.85,1422.14,216.7"/>
				<path class="st6" d="M1687.61,218.36c-14.46-17.15-35.06-26.6-58.01-26.6c-27.17,0-42.48,11.56-50.23,20.43l-2.09-16.97h-49.15
					v244.01h54.55v-78.16c8.73,8.24,23.41,16.66,46.91,16.66c47.11,0,80.02-38.17,80.02-92.81
					C1709.62,258.83,1701.8,235.19,1687.61,218.36 M1617.15,239.74c22.83,0,37.58,17.74,37.58,45.18
					c0,27.24-14.75,44.84-37.58,44.84c-14.72,0-26-6.8-34.46-20.79v-48.42C1591.39,246.55,1602.66,239.74,1617.15,239.74"/>
				<polygon class="st6" points="1835.38,195.22 1796.45,278.46 1757.85,195.22 1696.87,195.22 1767,328.47 1703.77,439.23 
					1766.17,439.23 1896.72,195.22 				"/>
			</g>
		</g>
	</g>
</g>
</svg>
